{
    "asset" : {
        "generator" : "Khronos glTF Blender I/O v1.0.5",
        "version" : "2.0"
    },
    "scene" : 0,
    "scenes" : [
        {
            "name" : "Scene",
            "nodes" : [
                0,
                1,
                2,
                3
            ]
        }
    ],
    "nodes" : [
        {
            "name" : "Text",
            "rotation" : [
                0,
                0.7071065306663513,
                -0.7071070075035095,
                -4.52376951898259e-07
            ],
            "scale" : [
                0.7125231623649597,
                0.7125231623649597,
                0.7125231623649597
            ],
            "translation" : [
                0.5777787566184998,
                0.6602151393890381,
                -1.0128445625305176
            ]
        },
        {
            "mesh" : 0,
            "name" : "e",
            "rotation" : [
                0.7071070075035095,
                0,
                0,
                0.7071065306663513
            ],
            "scale" : [
                0.6512057185173035,
                1,
                0.402202308177948
            ],
            "translation" : [
                0,
                0.8528215289115906,
                -1.0338047742843628
            ]
        },
        {
            "mesh" : 1,
            "name" : "k",
            "scale" : [
                1.0499999523162842,
                0.25,
                1.0499999523162842
            ],
            "translation" : [
                0,
                1.6976892948150635,
                0
            ]
        },
        {
            "mesh" : 2,
            "name" : "Cube",
            "translation" : [
                0,
                0.9239124059677124,
                0
            ]
        }
    ],
    "materials" : [
        {
            "doubleSided" : true,
            "name" : "Material.005",
            "pbrMetallicRoughness" : {}
        },
        {
            "doubleSided" : true,
            "name" : "Material.002",
            "pbrMetallicRoughness" : {}
        },
        {
            "doubleSided" : true,
            "name" : "Material",
            "pbrMetallicRoughness" : {}
        }
    ],
    "meshes" : [
        {
            "name" : "Plane",
            "primitives" : [
                {
                    "attributes" : {
                        "POSITION" : 0,
                        "NORMAL" : 1
                    },
                    "indices" : 2,
                    "material" : 0
                }
            ]
        },
        {
            "name" : "Cube.001",
            "primitives" : [
                {
                    "attributes" : {
                        "POSITION" : 3,
                        "NORMAL" : 4
                    },
                    "indices" : 5,
                    "material" : 1
                }
            ]
        },
        {
            "name" : "Cube",
            "primitives" : [
                {
                    "attributes" : {
                        "POSITION" : 6,
                        "NORMAL" : 7
                    },
                    "indices" : 8,
                    "material" : 2
                }
            ]
        }
    ],
    "accessors" : [
        {
            "bufferView" : 0,
            "componentType" : 5126,
            "count" : 4,
            "max" : [
                1,
                0,
                1
            ],
            "min" : [
                -1,
                0,
                -1
            ],
            "type" : "VEC3"
        },
        {
            "bufferView" : 1,
            "componentType" : 5126,
            "count" : 4,
            "type" : "VEC3"
        },
        {
            "bufferView" : 2,
            "componentType" : 5123,
            "count" : 6,
            "type" : "SCALAR"
        },
        {
            "bufferView" : 3,
            "componentType" : 5126,
            "count" : 80,
            "max" : [
                1,
                1.0199131965637207,
                1.0038522481918335
            ],
            "min" : [
                -1,
                -4.730238914489746,
                -1.0038522481918335
            ],
            "type" : "VEC3"
        },
        {
            "bufferView" : 4,
            "componentType" : 5126,
            "count" : 80,
            "type" : "VEC3"
        },
        {
            "bufferView" : 5,
            "componentType" : 5123,
            "count" : 132,
            "type" : "SCALAR"
        },
        {
            "bufferView" : 6,
            "componentType" : 5126,
            "count" : 24,
            "max" : [
                1.0000004768371582,
                1,
                1.0000005960464478
            ],
            "min" : [
                -1.0000003576278687,
                -1,
                -1.0000003576278687
            ],
            "type" : "VEC3"
        },
        {
            "bufferView" : 7,
            "componentType" : 5126,
            "count" : 24,
            "type" : "VEC3"
        },
        {
            "bufferView" : 8,
            "componentType" : 5123,
            "count" : 36,
            "type" : "SCALAR"
        }
    ],
    "bufferViews" : [
        {
            "buffer" : 0,
            "byteLength" : 48,
            "byteOffset" : 0
        },
        {
            "buffer" : 0,
            "byteLength" : 48,
            "byteOffset" : 48
        },
        {
            "buffer" : 0,
            "byteLength" : 12,
            "byteOffset" : 96
        },
        {
            "buffer" : 0,
            "byteLength" : 960,
            "byteOffset" : 108
        },
        {
            "buffer" : 0,
            "byteLength" : 960,
            "byteOffset" : 1068
        },
        {
            "buffer" : 0,
            "byteLength" : 264,
            "byteOffset" : 2028
        },
        {
            "buffer" : 0,
            "byteLength" : 288,
            "byteOffset" : 2292
        },
        {
            "buffer" : 0,
            "byteLength" : 288,
            "byteOffset" : 2580
        },
        {
            "buffer" : 0,
            "byteLength" : 72,
            "byteOffset" : 2868
        }
    ],
    "buffers" : [
        {
            "byteLength" : 2940,
            "uri" : "box.bin"
        }
    ]
}
